<?xml version="1.0" standalone="no"?>
<!DOCTYPE svg PUBLIC "-//W3C//DTD SVG 20010904//EN"
 "http://www.w3.org/TR/2001/REC-SVG-20010904/DTD/svg10.dtd">
<svg version="1.0" xmlns="http://www.w3.org/2000/svg"
 width="1248.000000pt" height="1248.000000pt" viewBox="0 0 1248.000000 1248.000000"
 preserveAspectRatio="xMidYMid meet">
<metadata>
Created by potrace 1.14, written by Peter Selinger 2001-2017
</metadata>
<g transform="translate(0.000000,1248.000000) scale(0.100000,-0.100000)"
fill="#000000" stroke="none">
<path d="M5938 12475 c-2 -2 -55 -6 -118 -10 -63 -3 -128 -8 -145 -10 -16 -2
-57 -7 -90 -10 -71 -7 -140 -15 -175 -20 -14 -2 -47 -7 -75 -10 -27 -4 -57 -8
-65 -10 -8 -2 -35 -7 -60 -10 -40 -5 -314 -59 -365 -71 -11 -3 -29 -7 -40 -9
-11 -3 -65 -16 -120 -31 -55 -14 -107 -27 -115 -29 -109 -26 -532 -168 -625
-210 -16 -7 -50 -21 -75 -31 -134 -53 -248 -105 -455 -210 -439 -222 -849
-495 -1230 -820 -152 -129 -497 -467 -615 -603 -36 -41 -73 -83 -83 -95 -130
-148 -335 -423 -478 -641 -282 -430 -516 -913 -683 -1405 -47 -140 -129 -420
-152 -525 -39 -169 -86 -407 -99 -500 -2 -11 -5 -36 -8 -55 -3 -19 -9 -57 -12
-85 -4 -27 -8 -61 -11 -75 -2 -14 -6 -56 -10 -95 -3 -38 -7 -81 -9 -94 -26
-160 -26 -969 -1 -1131 2 -14 7 -56 10 -95 9 -90 22 -195 41 -315 3 -14 7 -43
11 -65 3 -22 15 -85 26 -140 11 -55 22 -111 24 -125 3 -14 10 -45 15 -70 6
-25 12 -52 14 -60 60 -282 228 -786 355 -1064 15 -34 40 -90 56 -126 45 -100
166 -336 232 -452 12 -21 30 -53 40 -70 170 -299 477 -722 713 -983 309 -343
570 -584 919 -852 175 -133 484 -338 650 -430 30 -17 80 -45 110 -62 30 -17
143 -75 250 -128 151 -74 221 -116 310 -183 214 -162 446 -295 585 -335 73
-22 152 -22 191 -2 45 23 50 45 17 80 -24 25 -25 28 -8 23 110 -32 388 -94
545 -122 47 -8 96 -17 110 -19 14 -3 45 -7 70 -10 25 -3 52 -8 60 -10 8 -2 44
-7 80 -10 36 -4 76 -8 90 -10 62 -9 180 -19 365 -31 193 -12 739 -5 822 10 10
2 58 7 106 11 48 3 96 8 105 10 9 1 46 6 82 10 36 4 72 9 80 10 8 2 35 6 60 9
25 3 55 8 66 10 12 2 39 7 60 11 68 10 97 16 174 32 41 8 89 17 105 20 123 20
524 134 745 213 80 29 163 58 185 66 22 8 49 19 60 24 11 5 45 19 75 31 30 11
59 24 65 29 5 4 21 11 35 15 90 26 617 303 805 423 145 93 210 136 215 141 3
4 25 19 50 35 77 50 301 219 400 302 403 338 740 693 1037 1089 398 532 712
1135 925 1780 64 195 145 492 174 640 2 11 8 43 14 70 20 96 36 185 45 250 3
23 7 50 9 61 2 12 7 45 11 74 4 29 8 60 10 69 8 43 25 238 41 456 5 84 5 581
0 645 -3 25 -8 94 -11 154 -4 60 -8 117 -10 128 -2 10 -7 50 -10 88 -3 38 -8
77 -9 87 -2 10 -7 41 -10 68 -13 91 -14 99 -25 170 -9 60 -22 132 -57 305 -68
338 -244 880 -383 1183 -17 37 -31 69 -31 72 0 27 -255 509 -356 672 -392 634
-832 1135 -1421 1618 -14 11 -13 10 -103 81 -143 112 -481 344 -501 344 -5 0
-9 5 -9 10 0 6 -4 10 -8 10 -5 0 -62 32 -128 71 -65 40 -162 94 -214 121 -52
28 -102 54 -110 59 -28 17 -309 149 -317 149 -4 0 -21 7 -38 16 -35 18 -270
114 -280 114 -4 0 -21 7 -38 14 -34 16 -300 106 -328 111 -9 2 -39 11 -65 20
-48 16 -364 99 -414 108 -14 3 -87 17 -163 32 -75 14 -149 28 -165 30 -76 12
-171 26 -202 30 -132 17 -206 25 -285 31 -49 3 -101 8 -115 11 -29 4 -717 12
-722 8z"/>
</g>
</svg>
