<?xml version="1.0" standalone="no"?>
<!DOCTYPE svg PUBLIC "-//W3C//DTD SVG 20010904//EN"
 "http://www.w3.org/TR/2001/REC-SVG-20010904/DTD/svg10.dtd">
<svg version="1.0" xmlns="http://www.w3.org/2000/svg"
 width="1216.000000pt" height="1216.000000pt" viewBox="0 0 1216.000000 1216.000000"
 preserveAspectRatio="xMidYMid meet">
<metadata>
Created by potrace 1.14, written by Peter Selinger 2001-2017
</metadata>
<g transform="translate(0.000000,1216.000000) scale(0.100000,-0.100000)"
fill="#000000" stroke="none">
<path d="M5937 12154 c-1 -1 -67 -5 -147 -8 -80 -4 -165 -9 -190 -11 -25 -2
-73 -6 -108 -9 -34 -3 -77 -8 -95 -11 -17 -3 -55 -7 -82 -9 -28 -3 -62 -7 -75
-10 -14 -3 -47 -8 -75 -12 -62 -8 -76 -10 -145 -23 -30 -6 -66 -13 -80 -15
-14 -3 -52 -10 -85 -16 -82 -16 -358 -85 -480 -120 -654 -190 -1307 -512
-1860 -915 -105 -77 -331 -254 -367 -288 -7 -7 -51 -46 -98 -86 -232 -203
-547 -538 -744 -791 -37 -47 -72 -92 -79 -100 -63 -76 -288 -414 -379 -570
-93 -158 -308 -573 -308 -595 0 -2 -13 -33 -29 -67 -65 -144 -225 -576 -247
-670 -7 -33 -13 -52 -48 -178 -33 -120 -79 -316 -91 -390 -3 -19 -8 -42 -10
-50 -2 -8 -6 -31 -9 -50 -3 -19 -8 -46 -10 -60 -3 -14 -7 -43 -11 -65 -3 -22
-10 -67 -15 -100 -5 -33 -11 -82 -14 -110 -3 -27 -10 -88 -16 -135 -31 -275
-34 -929 -5 -1175 12 -97 15 -123 20 -175 3 -30 8 -66 10 -80 2 -14 7 -44 10
-68 33 -233 115 -612 170 -791 8 -25 26 -86 41 -136 98 -321 300 -800 459
-1084 207 -370 434 -706 641 -951 12 -14 63 -74 115 -135 51 -60 174 -191 274
-291 197 -197 260 -255 420 -389 33 -28 65 -55 72 -61 27 -25 324 -245 413
-305 231 -157 446 -282 724 -420 114 -57 229 -122 270 -152 399 -304 694 -431
805 -349 35 26 36 36 5 67 l-27 27 29 -5 c16 -3 65 -14 109 -26 104 -26 242
-59 280 -66 269 -48 336 -59 465 -74 130 -16 220 -24 405 -37 93 -6 618 -6
685 0 25 3 86 8 135 11 50 4 106 8 125 10 19 1 53 5 75 8 22 4 65 9 95 12 69
8 77 9 235 36 72 12 139 23 150 25 33 5 75 14 165 35 47 12 96 23 109 25 32 7
215 56 321 88 478 142 983 368 1415 634 102 63 309 200 371 246 23 17 54 40
69 51 85 61 321 250 345 275 3 3 43 38 90 79 84 74 377 364 455 451 34 38 179
207 247 289 90 107 369 505 436 621 244 423 339 613 469 945 52 131 177 496
187 547 3 13 19 73 35 133 17 61 42 162 56 226 31 142 32 148 60 306 3 16 12
78 20 138 9 61 18 126 21 145 3 19 7 64 10 100 2 36 6 75 8 86 26 146 26 903
1 1089 -3 17 -7 57 -10 90 -7 77 -24 214 -41 315 -4 25 -8 54 -10 65 -6 49
-17 106 -35 190 -11 50 -24 110 -29 135 -8 38 -74 295 -83 325 -2 6 -9 30 -16
55 -92 334 -284 802 -472 1150 -181 335 -449 737 -655 980 -426 503 -825 865
-1310 1189 -282 189 -416 266 -719 415 -231 114 -243 119 -425 191 -190 75
-545 196 -619 210 -9 1 -36 8 -61 15 -25 7 -52 13 -60 15 -8 2 -44 11 -80 20
-36 9 -73 19 -83 21 -10 2 -26 5 -35 8 -9 3 -30 7 -46 10 -16 3 -52 10 -80 15
-63 13 -101 20 -146 27 -19 2 -57 9 -85 14 -86 16 -243 35 -370 46 -33 3 -82
7 -110 9 -156 13 -609 27 -618 19z"/>
</g>
</svg>
